<svg width="300" height="800" viewBox="0 0 300 800" fill="none" xmlns="http://www.w3.org/2000/svg">
<g clip-path="url(#clip0_1_2)">
<path d="M200.7 236.8H122.1L109.5 274H55.8L132 63.4H191.4L267.6 274H213.3L200.7 236.8ZM187.5 197.2L161.4 120.1L135.6 197.2H187.5ZM177 724L133.2 644.5H120.9V724H69.6V513.4H155.7C172.3 513.4 186.4 516.3 198 522.1C209.8 527.9 218.6 535.9 224.4 546.1C230.2 556.1 233.1 567.3 233.1 579.7C233.1 593.7 229.1 606.2 221.1 617.2C213.3 628.2 201.7 636 186.3 640.6L234.9 724H177ZM120.9 608.2H152.7C162.1 608.2 169.1 605.9 173.7 601.3C178.5 596.7 180.9 590.2 180.9 581.8C180.9 573.8 178.5 567.5 173.7 562.9C169.1 558.3 162.1 556 152.7 556H120.9V608.2Z" fill="#A7A7A7"/>
</g>
<defs>
<clipPath id="clip0_1_2">
<rect width="300" height="800" fill="white"/>
</clipPath>
</defs>
</svg>
