<svg width="300" height="500" viewBox="0 0 300 500" fill="none" xmlns="http://www.w3.org/2000/svg">
<path d="M99.8 317.2H47.4L39 342H3.2L54 201.6H93.6L144.4 342H108.2L99.8 317.2ZM91 290.8L73.6 239.4L56.4 290.8H91ZM253.461 342L224.261 289H216.061V342H181.861V201.6H239.261C250.328 201.6 259.728 203.533 267.461 207.4C275.328 211.267 281.194 216.6 285.061 223.4C288.928 230.067 290.861 237.533 290.861 245.8C290.861 255.133 288.194 263.467 282.861 270.8C277.661 278.133 269.928 283.333 259.661 286.4L292.061 342H253.461ZM216.061 264.8H237.261C243.528 264.8 248.194 263.267 251.261 260.2C254.461 257.133 256.061 252.8 256.061 247.2C256.061 241.867 254.461 237.667 251.261 234.6C248.194 231.533 243.528 230 237.261 230H216.061V264.8Z" fill="#A7A7A7"/>
</svg>
